<svg width="53" height="53" viewBox="0 0 53 53" fill="none" xmlns="http://www.w3.org/2000/svg">
<path d="M34.4006 7.46835L38.8173 9.78611C43.5689 12.2796 45.9447 13.5264 47.2639 15.7668C48.5832 18.0071 48.5832 20.795 48.5832 26.3707V26.629C48.5832 32.2047 48.5832 34.9925 47.2639 37.2329C45.9447 39.4733 43.5689 40.72 38.8173 43.2136L34.4006 45.5313C30.5236 47.5659 28.5851 48.5832 26.4998 48.5832C24.4146 48.5832 22.4761 47.5659 18.5991 45.5313L14.1824 43.2136C9.43081 40.72 7.05501 39.4733 5.73576 37.2329C4.4165 34.9925 4.4165 32.2047 4.4165 26.629V26.3707C4.4165 20.795 4.4165 18.0071 5.73576 15.7668C7.05501 13.5264 9.43081 12.2796 14.1824 9.78611L18.5991 7.46834C22.4761 5.43378 24.4146 4.4165 26.4998 4.4165C28.5851 4.4165 30.5236 5.43379 34.4006 7.46835Z" stroke="#FF9C00" stroke-width="3" stroke-linecap="round"/>
<path d="M46.375 16.5625L37.5417 20.9792M26.5 26.5L6.625 16.5625M26.5 26.5V47.4792M26.5 26.5C26.5 26.5 32.5567 23.4717 36.4375 21.5312C36.8687 21.3156 37.5417 20.9792 37.5417 20.9792M37.5417 20.9792V28.7083M37.5417 20.9792L16.5625 9.9375" stroke="#209AFF" stroke-width="3" stroke-linecap="round"/>
</svg>
