<svg width="53" height="53" viewBox="0 0 53 53" fill="none" xmlns="http://www.w3.org/2000/svg">
<path d="M48.5837 48.5835L4.41699 48.5835" stroke="#209AFF" stroke-width="3" stroke-linecap="round"/>
<path d="M46.3745 48.5832V13.2498C46.3745 9.08576 46.3745 7.00373 45.0809 5.71012C43.7873 4.4165 41.7053 4.4165 37.5412 4.4165H33.1245C28.9604 4.4165 26.8784 4.4165 25.5848 5.71012C24.5435 6.75144 24.3404 8.30365 24.3008 11.0415" stroke="#209AFF" stroke-width="3"/>
<path d="M33.125 48.5832V19.8748C33.125 15.7108 33.125 13.6287 31.8314 12.3351C30.5378 11.0415 28.4557 11.0415 24.2917 11.0415H15.4583C11.2943 11.0415 9.21222 11.0415 7.91861 12.3351C6.625 13.6287 6.625 15.7108 6.625 19.8748V48.5832" stroke="#FF9C00" stroke-width="3"/>
<path d="M19.875 48.5835V41.9585" stroke="#209AFF" stroke-width="3" stroke-linecap="round"/>
<path d="M13.25 17.6665H26.5" stroke="#209AFF" stroke-width="3" stroke-linecap="round"/>
<path d="M13.25 24.2915H26.5" stroke="#209AFF" stroke-width="3" stroke-linecap="round"/>
<path d="M13.25 30.9165H26.5" stroke="#209AFF" stroke-width="3" stroke-linecap="round"/>
</svg>
