<svg width="53" height="53" viewBox="0 0 53 53" fill="none" xmlns="http://www.w3.org/2000/svg">
<path d="M15.4587 39.746C10.6555 39.7193 8.05426 39.5063 6.35741 37.8094C4.41699 35.869 4.41699 32.7459 4.41699 26.4998L4.41699 17.6665C4.41699 11.4204 4.41699 8.29734 6.35741 6.35692C8.29783 4.41651 11.4209 4.4165 17.667 4.4165L35.3337 4.4165C41.5798 4.4165 44.7028 4.4165 46.6432 6.35692C48.5837 8.29734 48.5837 11.4204 48.5837 17.6665V26.4998C48.5837 32.7459 48.5837 35.869 46.6432 37.8094C45.0315 39.4212 42.6037 39.6942 38.2479 39.7404L36.4378 39.746" stroke="#209AFF" stroke-width="3"/>
<path d="M19.875 13.25L33.125 13.25" stroke="#209AFF" stroke-width="3" stroke-linecap="round"/>
<path d="M15.458 20.979H37.5413" stroke="#209AFF" stroke-width="3" stroke-linecap="round"/>
<path d="M24.05 30.7963C25.4616 29.5933 27.5379 29.5933 28.9496 30.7963C29.5545 31.3118 30.3066 31.6234 31.0989 31.6866C32.9478 31.8341 34.4159 33.3023 34.5635 35.1511C34.6267 35.9434 34.9382 36.6955 35.4537 37.3005C36.6568 38.7121 36.6568 40.7884 35.4537 42.2001C34.9382 42.805 34.6267 43.5571 34.5635 44.3494C34.4159 46.1983 32.9478 47.6664 31.0989 47.8139C30.3066 47.8772 29.5545 48.1887 28.9496 48.7042C27.5379 49.9072 25.4616 49.9072 24.05 48.7042C23.4451 48.1887 22.6929 47.8772 21.9006 47.8139C20.0518 47.6664 18.5836 46.1983 18.4361 44.3494C18.3729 43.5571 18.0613 42.805 17.5458 42.2001C16.3428 40.7884 16.3428 38.7121 17.5458 37.3005C18.0613 36.6955 18.3729 35.9434 18.4361 35.1511C18.5836 33.3023 20.0518 31.8341 21.9006 31.6866C22.6929 31.6234 23.4451 31.3118 24.05 30.7963Z" stroke="#FF9C00" stroke-width="3"/>
<path d="M23.1875 40.1915L25.0804 41.9582L29.8125 37.5415" stroke="#FF9C00" stroke-width="3" stroke-linecap="round" stroke-linejoin="round"/>
</svg>
