<svg width="53" height="53" viewBox="0 0 53 53" fill="none" xmlns="http://www.w3.org/2000/svg">
<path d="M13.2495 7.729C13.2495 6.70005 13.2495 6.18557 13.4176 5.77974C13.6417 5.23864 14.0716 4.80874 14.6128 4.5846C15.0186 4.4165 15.5331 4.4165 16.562 4.4165H36.437C37.466 4.4165 37.9804 4.4165 38.3863 4.5846C38.9274 4.80874 39.3573 5.23864 39.5814 5.77974C39.7495 6.18557 39.7495 6.70005 39.7495 7.729C39.7495 8.75796 39.7495 9.27244 39.5814 9.67826C39.3573 10.2194 38.9274 10.6493 38.3863 10.8734C37.9804 11.0415 37.466 11.0415 36.437 11.0415H16.562C15.5331 11.0415 15.0186 11.0415 14.6128 10.8734C14.0716 10.6493 13.6417 10.2194 13.4176 9.67826C13.2495 9.27244 13.2495 8.75796 13.2495 7.729Z" stroke="#FF9C00" stroke-width="3"/>
<path d="M9.93701 39.75H43.062" stroke="#209AFF" stroke-width="3" stroke-linecap="round"/>
<path d="M9.93701 22.083H43.062" stroke="#209AFF" stroke-width="3" stroke-linecap="round"/>
<path d="M12.1482 17.2232L17.4551 12.9777C18.6532 12.0192 19.2522 11.5399 19.962 11.291C20.6718 11.042 21.4389 11.042 22.9732 11.042H30.1273C31.6756 11.042 32.4497 11.042 33.1649 11.2952C33.8802 11.5484 34.4819 12.0355 35.6852 13.0097L40.8909 17.2238C42.9627 18.9009 44.1663 21.4239 44.1663 24.0895V38.7896C44.1663 40.8384 43.4542 42.8235 42.1517 44.405L41.3605 45.3657C39.6825 47.4033 37.1813 48.5837 34.5418 48.5837H19.7796C18.5184 48.5837 17.8878 48.5837 17.29 48.5016C15.5168 48.2582 13.8594 47.4819 12.5372 46.2755C12.0915 45.8688 11.6878 45.3844 10.8804 44.4155C9.55748 42.828 8.83301 40.827 8.83301 38.7606V24.1208C8.83301 21.4374 10.0528 18.8995 12.1482 17.2232Z" stroke="#209AFF" stroke-width="3" stroke-linecap="round"/>
</svg>
