<svg width="53" height="53" viewBox="0 0 53 53" fill="none" xmlns="http://www.w3.org/2000/svg">
<path d="M4.41699 37.3208C4.41699 34.4293 4.41699 32.9835 5.06783 31.9215C5.43201 31.3272 5.93167 30.8275 6.52596 30.4633C7.58803 29.8125 9.0338 29.8125 11.9253 29.8125H14.3545C18.5186 29.8125 20.6006 29.8125 21.8942 31.1061C23.1878 32.3997 23.1878 34.4818 23.1878 38.6458V41.075C23.1878 43.9665 23.1878 45.4123 22.537 46.4744C22.1728 47.0687 21.6731 47.5683 21.0789 47.9325C20.0168 48.5833 18.571 48.5833 15.6795 48.5833C11.3422 48.5833 9.17355 48.5833 7.58044 47.6071C6.68901 47.0608 5.93952 46.3113 5.39325 45.4199C4.41699 43.8268 4.41699 41.6581 4.41699 37.3208Z" stroke="#209AFF" stroke-width="3"/>
<path d="M29.8125 11.9248C29.8125 9.03331 29.8125 7.58754 30.4633 6.52547C30.8275 5.93118 31.3272 5.43152 31.9215 5.06734C32.9835 4.4165 34.4293 4.4165 37.3208 4.4165C41.6581 4.4165 43.8268 4.4165 45.4199 5.39276C46.3113 5.93903 47.0608 6.68852 47.6071 7.57995C48.5833 9.17306 48.5833 11.3417 48.5833 15.679C48.5833 18.5705 48.5833 20.0163 47.9325 21.0784C47.5683 21.6727 47.0687 22.1723 46.4744 22.5365C45.4123 23.1873 43.9665 23.1873 41.075 23.1873H38.6458C34.4818 23.1873 32.3997 23.1873 31.1061 21.8937C29.8125 20.6001 29.8125 18.5181 29.8125 14.354V11.9248Z" stroke="#209AFF" stroke-width="3"/>
<path d="M36.4375 13.8019C36.4375 12.6637 36.4375 12.0946 36.7226 11.6928C36.8232 11.551 36.947 11.4272 37.0888 11.3266C37.4906 11.0415 38.0597 11.0415 39.1979 11.0415C40.3361 11.0415 40.9052 11.0415 41.307 11.3266C41.4488 11.4272 41.5726 11.551 41.6732 11.6928C41.9583 12.0946 41.9583 12.6637 41.9583 13.8019C41.9583 14.9401 41.9583 15.5092 41.6732 15.911C41.5726 16.0528 41.4488 16.1766 41.307 16.2772C40.9052 16.5623 40.3361 16.5623 39.1979 16.5623C38.0597 16.5623 37.4906 16.5623 37.0888 16.2772C36.947 16.1766 36.8232 16.0528 36.7226 15.911C36.4375 15.5092 36.4375 14.9401 36.4375 13.8019Z" fill="#209AFF"/>
<path d="M28.3125 48.5833C28.3125 49.4118 28.9841 50.0833 29.8125 50.0833C30.6409 50.0833 31.3125 49.4118 31.3125 48.5833H29.8125H28.3125ZM31.7754 30.5568L32.6088 31.804L32.6088 31.804L31.7754 30.5568ZM30.5568 31.7754L29.3096 30.942L29.3096 30.942L30.5568 31.7754ZM41.9583 29.8125V28.3125H37.5417V29.8125V31.3125H41.9583V29.8125ZM29.8125 41.9583H28.3125V48.5833H29.8125H31.3125V41.9583H29.8125ZM37.5417 29.8125V28.3125C36.0221 28.3125 34.7696 28.3107 33.7614 28.4132C32.7282 28.5184 31.7866 28.7453 30.942 29.3096L31.7754 30.5568L32.6088 31.804C32.8782 31.624 33.269 31.4788 34.065 31.3978C34.8861 31.3143 35.9597 31.3125 37.5417 31.3125V29.8125ZM29.8125 37.5417H31.3125C31.3125 35.9597 31.3143 34.8861 31.3978 34.065C31.4788 33.269 31.624 32.8782 31.804 32.6088L30.5568 31.7754L29.3096 30.942C28.7453 31.7866 28.5184 32.7282 28.4132 33.7614C28.3107 34.7696 28.3125 36.0221 28.3125 37.5417H29.8125ZM31.7754 30.5568L30.942 29.3096C30.296 29.7413 29.7413 30.296 29.3096 30.942L30.5568 31.7754L31.804 32.6088C32.0168 32.2903 32.2903 32.0168 32.6088 31.804L31.7754 30.5568Z" fill="#FF9C00"/>
<path d="M50.0837 29.8125C50.0837 28.9841 49.4121 28.3125 48.5837 28.3125C47.7552 28.3125 47.0837 28.9841 47.0837 29.8125H48.5837H50.0837ZM45.8572 48.2471L46.4312 49.633L46.4312 49.633L45.8572 48.2471ZM48.2475 45.8569L46.8616 45.2828L46.8616 45.2828L48.2475 45.8569ZM37.542 48.5833V50.0833H41.9587V48.5833V47.0833H37.542V48.5833ZM48.5837 37.5417H50.0837V29.8125H48.5837H47.0837V37.5417H48.5837ZM41.9587 48.5833V50.0833C42.9671 50.0833 43.7985 50.0841 44.4774 50.0378C45.1697 49.9906 45.8121 49.8894 46.4312 49.633L45.8572 48.2471L45.2832 46.8613C45.0906 46.9411 44.8127 47.008 44.2732 47.0448C43.7201 47.0825 43.0081 47.0833 41.9587 47.0833V48.5833ZM48.5837 41.9583H47.0837C47.0837 43.0078 47.0828 43.7198 47.0451 44.2728C47.0083 44.8124 46.9414 45.0902 46.8616 45.2828L48.2475 45.8569L49.6333 46.4309C49.8897 45.8118 49.9909 45.1694 50.0382 44.477C50.0845 43.7982 50.0837 42.9668 50.0837 41.9583H48.5837ZM45.8572 48.2471L46.4312 49.633C47.881 49.0324 49.0328 47.8806 49.6333 46.4309L48.2475 45.8569L46.8616 45.2828C46.5656 45.9975 45.9978 46.5653 45.2832 46.8613L45.8572 48.2471Z" fill="#FF9C00"/>
<path d="M4.41699 15.679C4.41699 11.3417 4.41699 9.17306 5.39325 7.57995C5.93952 6.68852 6.68901 5.93903 7.58044 5.39276C9.17355 4.4165 11.3422 4.4165 15.6795 4.4165C18.571 4.4165 20.0168 4.4165 21.0789 5.06734C21.6731 5.43152 22.1728 5.93118 22.537 6.52547C23.1878 7.58754 23.1878 9.03331 23.1878 11.9248V14.354C23.1878 18.5181 23.1878 20.6001 21.8942 21.8937C20.6006 23.1873 18.5186 23.1873 14.3545 23.1873H11.9253C9.0338 23.1873 7.58803 23.1873 6.52596 22.5365C5.93167 22.1723 5.43201 21.6727 5.06783 21.0784C4.41699 20.0163 4.41699 18.5705 4.41699 15.679Z" stroke="#FF9C00" stroke-width="3"/>
<path d="M11.042 13.8019C11.042 12.6637 11.042 12.0946 11.3271 11.6928C11.4277 11.551 11.5515 11.4272 11.6933 11.3266C12.0951 11.0415 12.6642 11.0415 13.8024 11.0415C14.9406 11.0415 15.5097 11.0415 15.9115 11.3266C16.0533 11.4272 16.1771 11.551 16.2777 11.6928C16.5628 12.0946 16.5628 12.6637 16.5628 13.8019C16.5628 14.9401 16.5628 15.5092 16.2777 15.911C16.1771 16.0528 16.0533 16.1766 15.9115 16.2772C15.5097 16.5623 14.9406 16.5623 13.8024 16.5623C12.6642 16.5623 12.0951 16.5623 11.6933 16.2772C11.5515 16.1766 11.4277 16.0528 11.3271 15.911C11.042 15.5092 11.042 14.9401 11.042 13.8019Z" fill="#FF9C00"/>
<path d="M11.042 39.1979C11.042 38.0597 11.042 37.4906 11.3271 37.0888C11.4277 36.947 11.5515 36.8232 11.6933 36.7226C12.0951 36.4375 12.6642 36.4375 13.8024 36.4375C14.9406 36.4375 15.5097 36.4375 15.9115 36.7226C16.0533 36.8232 16.1771 36.947 16.2777 37.0888C16.5628 37.4906 16.5628 38.0597 16.5628 39.1979C16.5628 40.3361 16.5628 40.9052 16.2777 41.307C16.1771 41.4488 16.0533 41.5726 15.9115 41.6732C15.5097 41.9583 14.9406 41.9583 13.8024 41.9583C12.6642 41.9583 12.0951 41.9583 11.6933 41.6732C11.5515 41.5726 11.4277 41.4488 11.3271 41.307C11.042 40.9052 11.042 40.3361 11.042 39.1979Z" fill="#209AFF"/>
<path d="M35.333 39.1981C35.333 37.6473 35.333 36.8719 35.7052 36.3149C35.8663 36.0738 36.0733 35.8668 36.3145 35.7057C36.8715 35.3335 37.6468 35.3335 39.1976 35.3335C40.7484 35.3335 41.5237 35.3335 42.0807 35.7057C42.3219 35.8668 42.5289 36.0738 42.69 36.3149C43.0622 36.8719 43.0622 37.6473 43.0622 39.1981C43.0622 40.7488 43.0622 41.5242 42.69 42.0812C42.5289 42.3223 42.3219 42.5294 42.0807 42.6905C41.5237 43.0627 40.7484 43.0627 39.1976 43.0627C37.6468 43.0627 36.8715 43.0627 36.3145 42.6905C36.0733 42.5294 35.8663 42.3223 35.7052 42.0812C35.333 41.5242 35.333 40.7488 35.333 39.1981Z" fill="#FF9C00"/>
</svg>
